<svg width="79" height="90" viewBox="0 0 79 90" fill="none" xmlns="http://www.w3.org/2000/svg">
<path d="M73.125 36.5625H78.75V42.1875H73.125V36.5625ZM61.2506 13.4916L65.2275 9.51188L69.2044 13.4916L65.2275 17.4684L61.2506 13.4916ZM36.5625 0H42.1875V5.625H36.5625V0ZM13.5225 17.5331L9.54562 13.5534L13.5225 9.57656L17.4994 13.5563L13.5225 17.5331ZM0 36.5625H5.625V42.1875H0V36.5625ZM50.625 36.5625H42.1875V28.125H36.5625V36.5625H28.125V42.1875H36.5625V50.625H42.1875V42.1875H50.625V36.5625ZM30.9375 84.375H47.8125V90H30.9375V84.375ZM25.3125 73.125H53.4375V78.75H25.3125V73.125Z" fill="#B8A06C"/>
</svg>
