<svg width="80" height="90" viewBox="0 0 80 90" fill="none" xmlns="http://www.w3.org/2000/svg">
<path d="M73.75 36.5625H79.375V42.1875H73.75V36.5625ZM61.8756 13.4916L65.8525 9.51187L69.8294 13.4916L65.8525 17.4684L61.8756 13.4916ZM37.1875 0H42.8125V5.625H37.1875V0ZM14.1475 17.5331L10.1706 13.5534L14.1475 9.57656L18.1244 13.5563L14.1475 17.5331ZM0.625 36.5625H6.25V42.1875H0.625V36.5625ZM31.5625 84.375H48.4375V90H31.5625V84.375ZM25.9375 73.125H54.0625V78.75H25.9375V73.125ZM40 11.25C24.5312 11.25 11.875 23.9062 11.875 39.375C11.875 51.75 17.5 57.0938 21.7188 60.75C24.5312 63.2813 25.9375 64.9688 25.9375 67.5H31.5625C31.5625 62.4375 28.4688 59.3438 25.375 56.5313C21.4375 53.1563 17.5 49.2188 17.5 39.375C17.5 27 27.625 16.875 40 16.875C52.375 16.875 62.5 27 62.5 39.375C62.5 49.2188 58.5625 53.1563 54.625 56.5313C51.5313 59.3438 48.4375 62.1563 48.4375 67.5H54.0625C54.0625 64.9688 55.4688 63.2813 58.2812 60.75C62.5 57.0938 68.125 51.75 68.125 39.375C68.125 23.9062 55.4688 11.25 40 11.25Z" fill="#B8A06C"/>
</svg>
