<svg width="80" height="80" viewBox="0 0 80 80" fill="none" xmlns="http://www.w3.org/2000/svg">
<path d="M23.2938 45.2875C24.1597 45.4982 25.0464 45.6114 25.9375 45.625C28.1716 45.6244 30.355 44.9586 32.2094 43.7125L41.2656 51.7844C40.5482 53.1467 40.1272 54.6454 40.0303 56.182C39.9333 57.7186 40.1626 59.2583 40.7031 60.7C41.2709 62.3335 42.2075 63.8141 43.4404 65.0268C44.6732 66.2395 46.1691 67.1517 47.8117 67.6925C49.4543 68.2333 51.1994 68.3881 52.9116 68.1449C54.6237 67.9017 56.2568 67.2671 57.6839 66.2903C59.1109 65.3135 60.2936 64.0209 61.14 62.5129C61.9864 61.0048 62.4738 59.322 62.5642 57.595C62.6546 55.868 62.3457 54.1435 61.6615 52.5553C60.9772 50.9671 59.936 49.558 58.6188 48.4375L65.7625 34.1219C67.1569 34.4364 68.6003 34.4665 70.0065 34.2103C71.4128 33.9542 72.7529 33.4171 73.9469 32.6312C75.9744 31.3939 77.5583 29.5465 78.4716 27.3537C79.3848 25.161 79.5806 22.7355 79.0309 20.4247C78.4812 18.1139 77.2141 16.0363 75.4113 14.4897C73.6085 12.9432 71.3624 12.0069 68.9949 11.8151C66.6273 11.6232 64.2598 12.1857 62.2315 13.4219C60.2032 14.658 58.6183 16.5045 57.7037 18.6967C56.7891 20.8889 56.5919 23.3143 57.1402 25.6254C57.6886 27.9366 58.9543 30.0148 60.7562 31.5625L53.6125 45.8781C52.8366 45.7076 52.0444 45.6227 51.25 45.625C49.0159 45.6256 46.8325 46.2914 44.9781 47.5375L35.9219 39.4656C36.6393 38.1033 37.0603 36.6046 37.1572 35.068C37.2542 33.5314 37.0249 31.9917 36.4844 30.55C35.9208 28.9284 34.9936 27.4572 33.7738 26.2493C32.554 25.0413 31.0739 24.1285 29.4468 23.5808C27.8198 23.0331 26.089 22.865 24.387 23.0895C22.685 23.3139 21.0569 23.9249 19.6274 24.8757C18.198 25.8264 17.0051 27.0917 16.1401 28.5746C15.2751 30.0575 14.761 31.7187 14.6371 33.431C14.5132 35.1432 14.7828 36.8612 15.4253 38.4532C16.0678 40.0452 17.0661 41.469 18.3438 42.6156L6.25 65.3125V0.625H0.625V73.75C0.625 75.2418 1.21763 76.6726 2.27252 77.7275C3.32742 78.7824 4.75816 79.375 6.25 79.375H79.375V73.75H8.13438L23.2938 45.2875ZM68.125 17.5C69.2375 17.5 70.3251 17.8299 71.2501 18.448C72.1751 19.0661 72.8961 19.9446 73.3218 20.9724C73.7476 22.0002 73.859 23.1312 73.6419 24.2224C73.4249 25.3135 72.8891 26.3158 72.1025 27.1025C71.3158 27.8891 70.3135 28.4249 69.2224 28.6419C68.1312 28.859 67.0002 28.7476 65.9724 28.3218C64.9446 27.8961 64.0661 27.1751 63.448 26.2501C62.8299 25.3251 62.5 24.2375 62.5 23.125C62.5 21.6332 63.0926 20.2024 64.1475 19.1475C65.2024 18.0926 66.6332 17.5 68.125 17.5ZM56.875 56.875C56.875 57.9875 56.5451 59.0751 55.927 60.0001C55.3089 60.9251 54.4304 61.6461 53.4026 62.0718C52.3748 62.4976 51.2438 62.609 50.1526 62.3919C49.0615 62.1749 48.0592 61.6391 47.2725 60.8525C46.4859 60.0658 45.9501 59.0635 45.7331 57.9724C45.516 56.8812 45.6274 55.7502 46.0532 54.7224C46.4789 53.6946 47.1999 52.8161 48.1249 52.198C49.0499 51.5799 50.1375 51.25 51.25 51.25C52.7418 51.25 54.1726 51.8426 55.2275 52.8975C56.2824 53.9524 56.875 55.3832 56.875 56.875ZM25.9375 28.75C27.05 28.75 28.1376 29.0799 29.0626 29.698C29.9876 30.3161 30.7086 31.1946 31.1343 32.2224C31.5601 33.2502 31.6715 34.3812 31.4544 35.4724C31.2374 36.5635 30.7016 37.5658 29.915 38.3525C29.1283 39.1391 28.126 39.6749 27.0349 39.8919C25.9437 40.109 24.8127 39.9976 23.7849 39.5718C22.7571 39.1461 21.8786 38.4251 21.2605 37.5001C20.6424 36.5751 20.3125 35.4875 20.3125 34.375C20.3125 32.8832 20.9051 31.4524 21.96 30.3975C23.0149 29.3426 24.4457 28.75 25.9375 28.75Z" fill="#B8A06C"/>
</svg>
