<svg width="90" height="90" viewBox="0 0 90 90" fill="none" xmlns="http://www.w3.org/2000/svg">
<path d="M37.1433 0C37.9585 3.43782e-05 38.7461 0.295264 39.3605 0.831093C39.9749 1.36692 40.3745 2.1071 40.4854 2.91474L40.5168 3.37354V24.9372C46.7638 25.6926 52.5771 28.521 57.0269 32.97C61.4768 37.4191 64.3062 43.2318 65.0628 49.4787H86.6264C87.4812 49.4789 88.3039 49.8036 88.9285 50.3871C89.5531 50.9707 89.9328 51.7695 89.9911 52.6223C90.0494 53.475 89.7818 54.3181 89.2424 54.9811C88.703 55.6442 87.932 56.0777 87.0852 56.1943L86.6264 56.2257H65.0628C64.3062 62.4726 61.4768 68.2853 57.0269 72.7343C52.5771 77.1834 46.7638 80.0118 40.5168 80.7672V86.5921C40.5256 87.453 40.2049 88.2846 39.6205 88.9167C39.0361 89.5488 38.2321 89.9335 37.3733 89.9922C36.5144 90.0508 35.6656 89.7789 35.0007 89.2321C34.3358 88.6853 33.9051 87.905 33.7967 87.0509L33.7698 86.5876V80.7627C27.5257 80.0058 21.7156 77.1779 17.2677 72.7308C12.8198 68.2837 9.99083 62.4741 9.23284 56.2302H3.40786C2.54703 56.239 1.71543 55.9183 1.08333 55.3339C0.451239 54.7495 0.0664781 53.9455 0.00784053 53.0867C-0.0507971 52.2278 0.221125 51.379 0.767925 50.7141C1.31472 50.0492 2.09503 49.6185 2.94905 49.5101L3.40786 49.4787H9.22834C9.98467 43.2325 12.8134 37.4203 17.2624 32.9713C21.7114 28.5223 27.5236 25.6936 33.7698 24.9372V3.37354C33.7698 2.47882 34.1252 1.62075 34.7578 0.988088C35.3905 0.355426 36.2486 0 37.1433 0ZM33.7698 56.2257H16.0429C16.755 60.6711 18.852 64.7783 22.0349 67.9621C25.2179 71.1459 29.3246 73.2439 33.7698 73.9571V56.2257ZM58.2437 56.2257H40.5168V73.9526C44.9607 73.2399 49.0664 71.1432 52.2493 67.9612C55.4321 64.7791 57.5299 60.6739 58.2437 56.2302V56.2257ZM33.7743 31.7473C29.3275 32.4588 25.2188 34.556 22.034 37.74C18.8493 40.9239 16.751 45.032 16.0384 49.4787H33.7698V31.7473H33.7743ZM40.5213 31.7473L40.5168 49.4787H58.2482C57.5617 45.1996 55.5915 41.2301 52.5986 38.0958C49.6057 34.9615 45.7312 32.8103 41.4884 31.9272L40.5168 31.7473H40.5213Z" fill="#B8A06C"/>
</svg>
